<svg id="Слой_1" data-name="Слой 1" xmlns="http://www.w3.org/2000/svg" viewBox="0 0 42.54 42.53"><defs><style>.cls-1{fill:#fff;stroke:#fff;stroke-miterlimit:10;stroke-width:3px;}</style></defs><path class="cls-1" d="M133.46,60.46H98.71a3,3,0,0,1-1.84-1.19,12,12,0,0,1-.56-1.2V35.6a6.19,6.19,0,0,1,.55-.47Q98.44,34,100,32.94a.74.74,0,0,0,.38-.71c0-3,0-5.92,0-8.87a2.21,2.21,0,0,1,2.41-2.43h26.52a2.21,2.21,0,0,1,2.41,2.43c0,3,0,6,0,9a.6.6,0,0,0,.29.57c1.14.76,2.26,1.56,3.4,2.33a.85.85,0,0,1,.41.77V57.59a2.85,2.85,0,0,1-2.15,2.78Zm1.15-23.39-.38.25L119.62,47.38a5.82,5.82,0,0,1-7,0l-14.55-10-.5-.33v2.24q0,9,0,18.07a6.47,6.47,0,0,0,.16,1.06h.12l.36-.4q4.48-5.05,9-10.1a1.8,1.8,0,0,1,.27-.28.58.58,0,0,1,.78,0,.57.57,0,0,1,.13.77,1.66,1.66,0,0,1-.24.3l-8.91,10c-.1.11-.19.24-.31.39H133.3l-.25-.31-8-9.07c-.38-.42-.76-.84-1.12-1.27a.59.59,0,0,1,.07-.86.62.62,0,0,1,.84,0A2.29,2.29,0,0,1,125,48q3.87,4.36,7.73,8.72l1.59,1.78h.12a7.07,7.07,0,0,0,.16-1.11q0-9.9,0-19.8Zm-18.54-14.9H102.91c-.94,0-1.26.31-1.26,1.24q0,7.28,0,14.55a.69.69,0,0,0,.34.65l11.35,7.8a4.53,4.53,0,0,0,5.47,0l11.47-7.89a.48.48,0,0,0,.25-.46c0-4.89,0-9.78,0-14.67,0-.93-.32-1.25-1.25-1.25Zm15.71,12v3.32l2.4-1.66Zm-31.38,0L98,35.85l2.41,1.66Z" transform="translate(-94.81 -19.43)"/></svg>