<svg id="Слой_1" data-name="Слой 1" xmlns="http://www.w3.org/2000/svg" viewBox="0 0 38.35 38.47"><defs><style>.cls-1{fill:#fff;}</style></defs><path class="cls-1" d="M140,35.16V50.62c0,.14-.05.27-.07.41-.08.75-.12,1.52-.24,2.26a10.21,10.21,0,0,1-3.29,6.15,11.38,11.38,0,0,1-7,2.67c-.91.06-1.82.1-2.73.15H115c-.24,0-.47,0-.71-.06a21.3,21.3,0,0,1-4.57-.47,9.81,9.81,0,0,1-6.92-5.54,13.79,13.79,0,0,1-1.15-5.84q-.07-6.21-.07-12.42a26.67,26.67,0,0,1,.44-5.64,9.87,9.87,0,0,1,5.59-7.22,13.93,13.93,0,0,1,5.76-1.16c5.31-.13,10.61-.19,15.91.06a12.34,12.34,0,0,1,4.47,1,10,10,0,0,1,6,8.16C139.84,33.82,139.89,34.49,140,35.16Zm-19.2,23.7v0c1,0,2.06,0,3.08,0,2.19-.08,4.39,0,6.55-.32a6.27,6.27,0,0,0,5.68-5,16.81,16.81,0,0,0,.41-3.68c.07-3.87.08-7.74.06-11.6a39.85,39.85,0,0,0-.28-4.64,6.4,6.4,0,0,0-5.38-5.81,22.51,22.51,0,0,0-4-.36q-5.41-.07-10.81,0a34,34,0,0,0-5,.33,6.23,6.23,0,0,0-5.46,5.07,20.35,20.35,0,0,0-.4,4c-.07,3.11-.09,6.23-.06,9.34,0,2.15.08,4.31.29,6.45a6.35,6.35,0,0,0,3.19,5.07,8.17,8.17,0,0,0,4,1.06C115.27,58.75,118,58.8,120.77,58.86Z" transform="translate(-101.62 -23.8)"/><path class="cls-1" d="M120.81,52.92A9.88,9.88,0,1,1,130.69,43,9.89,9.89,0,0,1,120.81,52.92ZM114.42,43a6.4,6.4,0,1,0,6.39-6.4A6.38,6.38,0,0,0,114.42,43Z" transform="translate(-101.62 -23.8)"/><path class="cls-1" d="M133.38,32.75A2.3,2.3,0,1,1,131,30.48,2.29,2.29,0,0,1,133.38,32.75Z" transform="translate(-101.62 -23.8)"/></svg>