<svg id="Слой_1" data-name="Слой 1" xmlns="http://www.w3.org/2000/svg" viewBox="0 0 30.26 45.02"><defs><style>.cls-1{fill:#fff;stroke:#fff;stroke-miterlimit:10;}</style></defs><path class="cls-1" d="M106.49,22.08c.82.15,1.65.22,2.44.44,5.46,1.51,9.19,4.85,10.64,10.41a15.74,15.74,0,0,1-1.25,10.74,27.61,27.61,0,0,1-3.64,5.5L112,52.7c.6.21,1.17.38,1.72.59a10.61,10.61,0,0,1,4,2.41,4.42,4.42,0,0,1,0,6.6A10.83,10.83,0,0,1,112.78,65a25.25,25.25,0,0,1-15.66-.3,10.08,10.08,0,0,1-4.19-2.6,4.39,4.39,0,0,1,0-6.26,10.79,10.79,0,0,1,4.4-2.67l1.43-.47c-.64-.83-1.28-1.63-1.89-2.46-1.27-1.73-2.63-3.4-3.74-5.23a15.94,15.94,0,0,1-2.39-8.7c.09-5.74,2.81-9.89,7.8-12.6a14,14,0,0,1,5.4-1.57,1.53,1.53,0,0,0,.29-.07Zm-1.13,34.65.24-.28,8.25-10.71a16.34,16.34,0,0,0,2.74-5.12,12,12,0,0,0-.86-10,12.12,12.12,0,0,0-16-4.46,11.47,11.47,0,0,0-6.15,11.74,15.68,15.68,0,0,0,3.15,7.56c1.62,2.15,3.28,4.27,4.92,6.4Zm.48,6.61c.53,0,1.53-.08,2.52-.19a14.91,14.91,0,0,0,5.73-1.66A7.67,7.67,0,0,0,116,60a1.38,1.38,0,0,0,0-2,5.67,5.67,0,0,0-1.21-1.08,12.26,12.26,0,0,0-4.37-1.68.64.64,0,0,0-.48.22c-1.12,1.43-2.22,2.88-3.34,4.31a1.37,1.37,0,0,1-2.34,0c-.94-1.2-1.86-2.4-2.79-3.61-.78-1-.78-1-2-.68a10.27,10.27,0,0,0-4,1.93c-1.28,1.09-1.3,2.22,0,3.25A10.7,10.7,0,0,0,97.8,62,20.76,20.76,0,0,0,105.84,63.34Z" transform="translate(-90.27 -21.58)"/></svg>